<?xml version="1.0" encoding="utf-8"?>
<!-- Generator: Adobe Illustrator 24.0.2, SVG Export Plug-In . SVG Version: 6.00 Build 0)  -->
<svg version="1.1" id="Layer_1" xmlns="http://www.w3.org/2000/svg" xmlns:xlink="http://www.w3.org/1999/xlink" x="0px" y="0px"
	 viewBox="0 0 100 100" style="enable-background:new 0 0 100 100;" xml:space="preserve">
<style type="text/css">
	.st0{fill:#58595B;}
</style>
<title>Asset 347</title>
<g>
	<g>
		<path class="st0" d="M97.9,59.2H2.1c-1.2,0-2.1,0.9-2.1,2.1c0,15,12.1,27.1,27.1,27.1h45.8c15,0,27.1-12.1,27.1-27.1
			C100,60.2,99.1,59.2,97.9,59.2z"/>
		<path class="st0" d="M43.5,36.8l-5.2-1.4c-5.6-1.5-11.3,1.8-12.8,7.4l-0.4,1.4l5.2,1.4c5.6,1.5,11.3-1.8,12.8-7.4c0,0,0,0,0,0
			L43.5,36.8z"/>
		<path class="st0" d="M42.4,48.7l5.2,1.4c5.6,1.5,11.3-1.8,12.8-7.4l0.4-1.4L55.5,40c-5.6-1.5-11.3,1.8-12.8,7.4c0,0,0,0,0,0
			L42.4,48.7z"/>
		<path class="st0" d="M59.5,53.3l5.2,1.4c5.6,1.5,11.3-1.8,12.8-7.4l0.4-1.4l-5.2-1.4c-5.6-1.5-11.3,1.8-12.8,7.4L59.5,53.3z"/>
		<path class="st0" d="M39.9,29.7l5.2,1.4l0.4-1.4c1.5-5.6-1.8-11.3-7.4-12.8l-5.2-1.4l-0.4,1.4C31,22.5,34.3,28.2,39.9,29.7z"/>
		<path class="st0" d="M57,34.3l5.2,1.4l0.4-1.4c1.5-5.6-1.8-11.3-7.4-12.8c0,0,0,0,0,0L50,20.1l-0.4,1.4
			C48.2,27.1,51.5,32.8,57,34.3C57,34.3,57,34.3,57,34.3z"/>
		<path class="st0" d="M74.2,38.9l5.2,1.4l0.4-1.4c1.5-5.6-1.8-11.3-7.4-12.8c0,0,0,0,0,0l-5.2-1.4l-0.4,1.4
			C65.3,31.7,68.6,37.4,74.2,38.9z"/>
		<path class="st0" d="M95.7,47.7c0.4-1.6-0.5-3.2-2.1-3.6c0,0,0,0,0,0l-10.5-2.8L81.6,47l10.5,2.8C93.7,50.2,95.3,49.3,95.7,47.7
			C95.7,47.7,95.7,47.7,95.7,47.7z"/>
		<path class="st0" d="M12.5,34.6c-1.6-0.4-3.2,0.5-3.6,2.1c-0.4,1.6,0.5,3.2,2.1,3.6l7.6,2c1.6,0.4,3.2-0.5,3.6-2.1
			c0.4-1.6-0.5-3.2-2.1-3.6L12.5,34.6z"/>
		<path class="st0" d="M17,17.4l7.6,2c1.6,0.4,3.2-0.5,3.6-2.1c0.4-1.6-0.5-3.2-2.1-3.6l-7.6-2c-1.6-0.4-3.2,0.5-3.6,2.1
			S15.5,17,17,17.4z"/>
		<path class="st0" d="M6.4,26.8l21,5.6c1.6,0.4,3.2-0.5,3.6-2.1c0.4-1.6-0.5-3.2-2.1-3.6c0,0,0,0,0,0l-21-5.6
			c-1.6-0.4-3.2,0.5-3.6,2.1C3.9,24.8,4.8,26.4,6.4,26.8z"/>
	</g>
</g>
</svg>
